<?xml version="1.0" encoding="UTF-8"?>
<!DOCTYPE svg PUBLIC "-//W3C//DTD SVG 1.1//EN" "http://www.w3.org/Graphics/SVG/1.1/DTD/svg11.dtd">
<!-- Creator: CorelDRAW X8 -->
<svg xmlns="http://www.w3.org/2000/svg" xml:space="preserve" width="9mm" height="9mm" version="1.1" style="shape-rendering:geometricPrecision; text-rendering:geometricPrecision; image-rendering:optimizeQuality; fill-rule:evenodd; clip-rule:evenodd"
viewBox="0 0 900 900"
 xmlns:xlink="http://www.w3.org/1999/xlink">
 <defs>
  <style type="text/css">
   <![CDATA[
    .fil0 {fill:#C4C4C4}
   ]]>
  </style>
 </defs>
 <g id="Camada_x0020_1">
  <metadata id="CorelCorpID_0Corel-Layer"/>
  <g id="next-prev.svg">
   <g>
    <path class="fil0" d="M455 26c-232,0 -421,188 -421,420 0,232 189,420 421,420 232,0 420,-188 420,-420 0,-232 -188,-420 -420,-420zm182 430l-252 250c-2,2 -6,4 -10,4 -4,0 -6,-2 -10,-4l-24 -24c-2,-2 -4,-6 -4,-10 0,-4 2,-6 4,-10l220 -216 -218 -218c-2,-2 -4,-6 -4,-10 0,-4 2,-6 4,-10l24 -22c4,-4 14,-4 18,0l250 250c6,6 6,14 2,20z"/>
   </g>
  </g>
 </g>
</svg>
