<?xml version="1.0" encoding="UTF-8"?>
<!DOCTYPE svg PUBLIC "-//W3C//DTD SVG 1.1//EN" "http://www.w3.org/Graphics/SVG/1.1/DTD/svg11.dtd">
<!-- Creator: CorelDRAW X8 -->
<svg xmlns="http://www.w3.org/2000/svg" xml:space="preserve" width="67.616mm" height="70.069mm" version="1.1" style="shape-rendering:geometricPrecision; text-rendering:geometricPrecision; image-rendering:optimizeQuality; fill-rule:evenodd; clip-rule:evenodd"
viewBox="0 0 6762 7007"
 xmlns:xlink="http://www.w3.org/1999/xlink">
 <defs>
  <style type="text/css">
   <![CDATA[
    .fil0 {fill:#C00B25}
   ]]>
  </style>
 </defs>
 <g id="Camada_x0020_1">
  <metadata id="CorelCorpID_0Corel-Layer"/>
  <path class="fil0" d="M56 3056c1244,3 628,141 1073,-723 343,-667 1040,-1215 1794,-1314l0 4912c-799,-123 -1446,-646 -1780,-1288 -58,-112 -109,-225 -151,-352 -68,-204 -71,-377 -144,-399l-790 1c268,2652 3584,3867 5515,2038 281,-267 450,-466 673,-863 128,-226 387,-865 359,-1176l-2005 0 -23 834 901 0c-276,528 -914,1076 -1723,1207l0 -4916c915,130 1616,798 1926,1629 44,117 75,321 117,405l820 8c-190,-1594 -1542,-2911 -3282,-2911 -1741,1 -3084,1314 -3280,2908z"/>
 </g>
</svg>
