<?xml version="1.0" encoding="UTF-8"?>
<!DOCTYPE svg PUBLIC "-//W3C//DTD SVG 1.1//EN" "http://www.w3.org/Graphics/SVG/1.1/DTD/svg11.dtd">
<!-- Creator: CorelDRAW X8 -->
<svg xmlns="http://www.w3.org/2000/svg" xml:space="preserve" width="307.835mm" height="39.439mm" version="1.1" style="shape-rendering:geometricPrecision; text-rendering:geometricPrecision; image-rendering:optimizeQuality; fill-rule:evenodd; clip-rule:evenodd"
viewBox="0 0 30784 3944"
 xmlns:xlink="http://www.w3.org/1999/xlink">
 <defs>
  <style type="text/css">
   <![CDATA[
    .fil2 {fill:#830E21}
    .fil1 {fill:#A41229}
    .fil4 {fill:#CA7582}
    .fil3 {fill:#FEFDFD}
    .fil0 {fill:#FFFEFE}
   ]]>
  </style>
 </defs>
 <g id="Camada_x0020_1">
  <metadata id="CorelCorpID_0Corel-Layer"/>
  <g id="_731238640">
   <polygon class="fil0" points="-72,3816 30791,3816 30791,58 -72,58 "/>
   <path class="fil1" d="M1636 145c-1207,112 -1979,1402 -1476,2512 607,1338 1923,1080 3209,1080l24643 0c330,0 749,22 1069,-13 1218,-136 1985,-1386 1484,-2514 -596,-1341 -1972,-1073 -3215,-1073l-24643 0c-333,0 -748,-22 -1071,8z"/>
   <path class="fil2" d="M3772 2103l-1482 6 469 492 -191 233c23,122 626,672 757,786 524,-241 960,-619 1097,-1205l-618 -620c-6,62 -1,116 0,170 0,13 1,68 -1,78 -14,67 5,18 -31,60z"/>
   <path class="fil0" d="M2568 2834l191 -233 -469 -492 1482 -6 -2 -345 -1497 13 53 -39 433 -455c-28,-97 -147,-201 -237,-240l-896 899c109,97 832,881 942,898z"/>
   <path class="fil0" d="M15528 2528l52 -38 -40 52c-79,189 -220,69 -348,100 -160,233 372,254 503,1 73,-142 83,-763 19,-877 -169,-34 -59,42 -182,24 -42,-6 -387,-149 -519,224 -54,152 -17,306 87,420 132,147 253,116 428,94z"/>
   <path class="fil0" d="M19613 1439c-67,96 -38,252 -40,365 -839,-292 -750,1023 -3,682 80,72 51,64 167,45 19,-138 25,-966 -6,-1075l-118 -17z"/>
   <path class="fil0" d="M25865 2483c80,58 65,80 160,36 47,-113 29,-612 11,-753 -108,-16 -86,-15 -166,47 -765,-365 -729,1048 -5,670z"/>
   <path class="fil0" d="M21975 2484c68,39 151,119 183,-19 12,-50 4,-251 4,-316 0,-109 47,-565 -171,-333 -730,-391 -780,1031 -16,668z"/>
   <path class="fil0" d="M10805 2484c217,124 187,43 187,-335 0,-389 27,-455 -182,-337 -714,-378 -772,1036 -5,672z"/>
   <path class="fil0" d="M14488 2486c67,31 79,67 157,35 20,-18 158,-1000 -144,-706 -787,-336 -728,1024 -13,671z"/>
   <path class="fil0" d="M8664 2486c84,66 54,63 166,45l10 -765c-119,-17 -94,-16 -175,46 -753,-350 -751,1026 -1,674z"/>
   <path class="fil0" d="M23895 1786c-40,127 -51,631 13,738 291,102 -6,-480 226,-575 333,-135 188,427 252,567l108 24c117,-178 -68,-423 128,-600 383,-58 173,370 262,584l117 17c33,-81 155,-776 -299,-785 -128,-2 -168,65 -272,101 -172,-186 -311,-60 -402,-76 -51,-9 -54,-58 -133,5z"/>
   <path class="fil0" d="M17080 1779c-21,41 -111,860 91,754 172,-90 -160,-695 319,-576 117,213 -3,396 83,576 302,52 -6,-505 228,-592 362,-135 171,450 273,587l99 11c72,-132 55,-545 -49,-666 -180,-210 -334,-97 -511,-23 -217,-176 -308,-57 -397,-65 -75,-6 -3,-51 -136,-6z"/>
   <path class="fil0" d="M6446 1773c-502,157 -258,919 216,757 452,-155 249,-902 -216,-757z"/>
   <path class="fil0" d="M16706 2337c-129,-46 -439,181 -480,-129 154,0 414,32 543,-25 162,-337 -515,-676 -709,-181 -224,573 686,705 646,335z"/>
   <path class="fil0" d="M20680 2361c-123,-100 -113,14 -265,18 -129,4 -203,-50 -228,-167 163,-9 418,42 551,-34 160,-325 -512,-668 -711,-179 -218,535 615,719 653,362z"/>
   <path class="fil0" d="M22474 1771c-23,124 -38,646 5,746 67,36 20,35 113,14 109,-203 -71,-409 125,-595 384,-54 156,381 261,590 173,58 138,-118 137,-245 -1,-155 28,-520 -318,-524 -72,-1 -124,31 -162,31 -58,1 -85,-50 -161,-17z"/>
   <path class="fil0" d="M27188 2307c-145,166 -252,-29 -400,-9l-53 88c114,188 459,215 585,24 209,-315 -335,-330 -382,-437 201,-141 198,55 368,0 95,-241 -383,-273 -500,-102 -213,311 330,318 382,436z"/>
   <path class="fil3" d="M13003 2307c-172,228 -320,-159 -445,54 45,214 434,232 566,67 87,-110 42,-247 -63,-311 -94,-58 -217,-68 -239,-78 -117,-54 -48,-36 -58,-76 197,-120 183,61 356,11 99,-241 -383,-274 -500,-102 -78,116 -33,231 77,292 121,68 255,37 306,143z"/>
   <path class="fil0" d="M7637 1725c-60,39 -124,27 -129,109 -6,80 79,83 129,127 0,154 -66,613 177,582 190,-25 16,-177 6,-212 -15,-53 -4,-327 2,-393 98,-43 42,19 110,-70 8,-127 -37,-86 -116,-143 0,-101 15,-175 -28,-263 -189,-93 -151,145 -151,263z"/>
   <path class="fil2" d="M2326 1732l1049 -9c-160,-60 -418,-356 -616,-446l-433 455z"/>
   <path class="fil0" d="M13473 1725c0,0 -311,124 -2,213 8,197 -82,678 231,591 57,-100 29,-100 -52,-172l-4 -419 124 -43 -127 -166c3,-86 41,-290 -84,-289 -124,0 -86,199 -86,285z"/>
   <path class="fil0" d="M5645 2220c-162,-184 -81,-472 -317,-439 -45,123 203,695 291,751 115,-43 397,-728 344,-781 -166,-78 -209,327 -318,469z"/>
   <path class="fil0" d="M7236 2519l102 15c76,-121 73,-956 9,-1084 -219,-48 -147,279 -147,460 0,156 -41,489 36,609z"/>
   <path class="fil0" d="M11804 2526c241,37 161,-255 161,-457 0,-148 42,-519 -42,-619 -203,-54 -137,296 -137,460 0,184 -20,445 18,616z"/>
   <path class="fil0" d="M9183 2530l101 7c92,-127 7,-307 64,-445 78,-186 184,-121 282,-219l-3 -98c-112,-44 -192,-10 -281,56 -204,-173 -196,-11 -194,185 1,159 -37,374 31,514z"/>
   <path class="fil1" d="M15275 1957c-245,118 -69,520 187,400 216,-101 111,-543 -187,-400z"/>
   <path class="fil1" d="M10714 2362c70,-103 141,-137 96,-291 -69,-237 -476,-175 -394,151 40,158 167,154 298,140z"/>
   <path class="fil1" d="M25566 1958c-220,128 -62,510 188,396 245,-111 95,-559 -188,-396z"/>
   <path class="fil1" d="M6449 1965c-110,63 -142,158 -88,289 51,122 189,155 301,91 188,-109 72,-543 -213,-380z"/>
   <path class="fil1" d="M21884 2362c70,-103 140,-137 95,-291 -34,-119 -164,-173 -285,-126 -141,55 -241,464 190,417z"/>
   <path class="fil1" d="M8360 2362c421,47 345,-365 190,-419 -114,-40 -228,-2 -275,111 -60,147 17,203 85,308z"/>
   <path class="fil1" d="M19270 1955c-242,133 -75,495 179,394 247,-99 91,-541 -179,-394z"/>
   <path class="fil1" d="M14200 1963c-246,143 -45,534 209,374 204,-128 54,-525 -209,-374z"/>
   <path class="fil0" d="M28068 1937c62,122 368,66 499,66 64,0 576,57 520,-86 -92,-96 -381,-46 -520,-46 -88,0 -176,0 -264,-1 -148,-1 -153,-30 -235,67z"/>
   <path class="fil3" d="M12235 2544c159,-32 107,-183 107,-343 0,-130 31,-309 -27,-422 -193,-90 -146,194 -145,317 0,137 -49,354 65,448z"/>
   <path class="fil0" d="M26393 2526c184,56 137,-166 136,-298 0,-139 31,-332 -24,-453 -192,-67 -148,160 -148,294 1,141 -35,338 36,457z"/>
   <path class="fil3" d="M28085 2234c110,41 892,43 986,-6l7 -80c-119,-48 -427,-19 -564,-19 -139,0 -475,-61 -429,105z"/>
   <path class="fil3" d="M28083 2500c111,39 903,41 991,-8 46,-165 -531,-98 -798,-99 -119,-1 -228,-26 -193,107z"/>
   <path class="fil0" d="M23565 2521c40,-65 109,-936 -103,-741 -67,62 -36,350 -36,448 -1,124 -46,368 139,293z"/>
   <path class="fil1" d="M20175 2069l435 0c-87,-224 -364,-231 -435,0z"/>
   <path class="fil1" d="M16208 2067l435 2c-73,-206 -356,-244 -435,-2z"/>
   <path class="fil3" d="M12211 1622c76,27 48,25 120,-14 16,-95 26,-83 -26,-161 -132,-17 -171,60 -94,175z"/>
   <path class="fil3" d="M26379 1611c78,40 42,40 122,6 43,-78 45,-92 -10,-169 -129,-21 -148,43 -112,163z"/>
   <path class="fil3" d="M23446 1607c136,79 192,-34 117,-148 -115,-47 -146,44 -117,148z"/>
   <polygon class="fil4" points="15540,2542 15580,2490 15528,2528 "/>
  </g>
 </g>
</svg>
