<?xml version="1.0" encoding="UTF-8"?>
<!DOCTYPE svg PUBLIC "-//W3C//DTD SVG 1.1//EN" "http://www.w3.org/Graphics/SVG/1.1/DTD/svg11.dtd">
<!-- Creator: CorelDRAW X8 -->
<svg xmlns="http://www.w3.org/2000/svg" xml:space="preserve" width="307.835mm" height="39.439mm" version="1.1" style="shape-rendering:geometricPrecision; text-rendering:geometricPrecision; image-rendering:optimizeQuality; fill-rule:evenodd; clip-rule:evenodd"
viewBox="0 0 30784 3944"
 xmlns:xlink="http://www.w3.org/1999/xlink">
 <defs>
  <style type="text/css">
   <![CDATA[
    .fil2 {fill:#5C0A17}
    .fil1 {fill:#720D1D}
    .fil3 {fill:#FDFDFD}
    .fil0 {fill:#FEFEFE}
   ]]>
  </style>
 </defs>
 <g id="Camada_x0020_1">
  <metadata id="CorelCorpID_0Corel-Layer"/>
  <g id="_708657104">
   <polygon class="fil0" points="94,3889 30878,3889 30878,-55 94,-55 "/>
   <path class="fil1" d="M1749 218c-1288,139 -1950,1462 -1475,2511 605,1335 1902,1080 3208,1080l24643 0c973,0 1772,115 2409,-820 290,-426 396,-1172 145,-1708 -211,-449 -608,-859 -1141,-1002 -482,-129 -1519,-69 -2075,-69 -8214,0 -16428,0 -24642,0 -322,0 -768,-25 -1072,8z"/>
   <path class="fil2" d="M3886 2181l-1483 0c33,82 168,180 237,247 45,43 215,230 236,269l-189 210c13,108 7,65 159,215l594 568c316,-153 460,-229 666,-449 234,-250 278,-353 426,-729 -73,-195 -490,-464 -600,-638 0,51 5,115 3,163 -4,148 -28,124 -49,144z"/>
   <path class="fil0" d="M2687 2907l189 -210c-21,-39 -191,-226 -236,-269 -69,-67 -204,-165 -237,-247l1483 0 -3 -350 -1497 12c12,-17 28,-22 55,-38 33,-77 145,-172 205,-235 75,-78 142,-167 227,-216 -27,-96 -147,-205 -238,-245 -82,78 -142,146 -222,228 -40,42 -62,68 -104,108 -150,148 -404,344 -562,572 110,95 823,875 940,890z"/>
   <path class="fil0" d="M15676 2574c-106,303 -387,12 -404,207 -13,149 403,194 537,-66 62,-120 68,-608 49,-783 -21,-193 -147,-58 -215,-68 -7,-1 -426,-166 -529,262 -68,285 169,609 562,448z"/>
   <path class="fil0" d="M19727 1511c-64,94 -38,215 -41,366 -150,-43 -271,-82 -421,7 -372,221 -151,920 416,676 51,43 78,59 169,43 23,-183 42,-955 -11,-1070l-112 -22z"/>
   <path class="fil0" d="M14599 2562c7,2 16,1 19,9l90 40c121,4 83,-228 83,-390 0,-216 43,-456 -137,-371l-36 22c-4,2 -12,8 -19,11 -714,-352 -751,1022 0,679z"/>
   <path class="fil0" d="M8776 2560c243,180 180,-137 180,-552 0,-23 1,-80 -3,-100 -23,-104 -72,-100 -177,-25 -753,-336 -750,1011 0,677z"/>
   <path class="fil0" d="M10920 2560c6,4 15,3 18,12 7,18 25,16 36,21 177,76 131,-153 131,-372 0,-211 46,-451 -130,-371l-55 33c-290,-156 -566,45 -568,338 -2,334 275,456 568,339z"/>
   <path class="fil0" d="M25981 2560c6,4 14,4 17,13 1,5 85,76 140,19 52,-123 31,-610 12,-753 -97,-16 -92,-10 -169,44 -732,-338 -765,998 0,677z"/>
   <path class="fil0" d="M22090 2560c40,21 50,51 108,50 48,0 63,-28 74,-72 12,-50 3,-252 3,-317 0,-148 41,-551 -174,-331 -271,-164 -558,15 -578,304 -24,353 285,479 567,366z"/>
   <path class="fil0" d="M23989 1956c0,58 -71,823 138,636 98,-167 -90,-577 187,-584 275,-6 107,407 186,584l107 20c19,-37 22,-23 33,-74 5,-21 6,-55 7,-77 1,-58 -3,-129 -3,-188 -1,-171 -6,-144 83,-263 438,-44 148,462 273,586 181,180 141,-335 141,-401 0,-191 -76,-288 -199,-339 -204,-86 -268,27 -399,74 -90,-95 -155,-122 -318,-87 -170,37 -1,8 -132,-8 -84,-10 -104,35 -104,121z"/>
   <path class="fil0" d="M6559 1845c-498,153 -262,921 217,758 452,-155 254,-903 -217,-758z"/>
   <path class="fil0" d="M17167 1956l0 503c0,212 165,236 167,-25 1,-229 -47,-271 89,-421l181 11c116,220 -5,505 89,576 281,91 -5,-499 222,-586 354,-135 182,436 269,593l103 5c52,-232 94,-652 -170,-760 -182,-74 -282,21 -398,78 -78,-98 -161,-119 -322,-84 -107,24 -230,-70 -230,110z"/>
   <path class="fil0" d="M16819 2410c-125,-45 -440,181 -479,-129 164,0 408,34 542,-25 91,-189 -102,-383 -256,-419 -484,-114 -654,560 -266,740 143,67 485,66 459,-167z"/>
   <path class="fil0" d="M20799 2459c-91,-148 -118,-12 -271,-7 -143,4 -204,-61 -228,-168 416,-22 693,85 540,-243 -87,-187 -370,-294 -577,-137 -181,137 -192,431 -54,584 148,165 493,188 590,-29z"/>
   <path class="fil0" d="M22588 1844c-18,132 -44,697 5,748 199,98 146,-173 145,-319 -1,-148 29,-326 219,-264 228,74 0,571 170,605 140,29 101,-243 101,-419 0,-178 -79,-298 -210,-346 -112,-41 -139,-12 -235,7 -98,19 -109,-61 -195,-12z"/>
   <path class="fil0" d="M27301 2380c-197,220 -318,-160 -443,53 39,212 425,235 564,64 235,-289 -315,-384 -370,-435 154,-203 334,138 386,-56 36,-136 -249,-204 -379,-162 -184,58 -312,337 52,437 33,9 79,15 107,26 120,43 56,12 83,73z"/>
   <path class="fil0" d="M13116 2380c-179,231 -369,-197 -446,79 100,179 457,218 579,26 115,-181 -47,-310 -228,-355 -209,-52 -127,-23 -144,-94 163,-100 422,145 375,-74 -22,-104 -267,-162 -397,-110 -166,67 -289,330 70,429 32,9 74,15 106,26 118,41 54,10 85,73z"/>
   <path class="fil2" d="M2441 1805l1047 -8c-70,-25 -223,-160 -292,-216 -101,-82 -216,-184 -323,-227 -85,49 -152,138 -227,216 -60,63 -172,158 -205,235z"/>
   <path class="fil0" d="M7750 1797l-38 21c-48,26 1,-6 -37,18 -74,47 -108,153 75,160l0 410c0,263 281,259 257,110 -19,-116 -125,44 -71,-507 0,0 232,-52 63,-173 -5,-4 -13,-6 -18,-9l-35 -19c-4,-2 -11,-7 -17,-11l-11 -273 -118 -14c-74,92 -50,138 -50,287z"/>
   <path class="fil0" d="M13587 1797c-91,67 -102,-2 -132,133 45,70 32,57 132,76 0,207 -65,714 222,591 98,-76 -10,-137 -50,-161l0 -430c78,-15 72,-10 124,-41 -7,-150 -37,-106 -124,-168 0,-100 32,-285 -86,-286 -120,-1 -86,186 -86,286z"/>
   <path class="fil0" d="M5759 2292c-166,-188 -79,-472 -318,-438 -43,116 46,245 97,376 47,119 87,307 194,375 120,-46 170,-266 217,-379 48,-114 170,-313 127,-402 -128,-131 -223,345 -317,468z"/>
   <path class="fil0" d="M7314 1665c0,180 -40,800 33,926l105 15c85,-143 40,-743 40,-941 0,-231 -178,-212 -178,0z"/>
   <path class="fil0" d="M11899 1665c0,290 -16,654 16,934 132,20 163,10 163,-140 0,-195 40,-883 -41,-936 -105,-28 -138,25 -138,142z"/>
   <path class="fil0" d="M9265 1983c0,525 -58,647 137,624 63,-112 6,-313 60,-442 73,-176 161,-121 285,-213l-4 -113c-118,-22 -198,-15 -274,67 -7,-5 -204,-228 -204,77z"/>
   <path class="fil1" d="M15289 2337c67,60 128,149 268,100 105,-37 156,-158 122,-289 -50,-195 -453,-268 -390,189z"/>
   <path class="fil1" d="M6749 2011c-415,-43 -323,373 -166,423 148,48 249,-29 276,-146 36,-152 -37,-209 -110,-277z"/>
   <path class="fil1" d="M21799 2033c-49,26 -77,18 -100,115 -53,220 131,349 280,281 241,-108 104,-549 -180,-396z"/>
   <path class="fil1" d="M10629 2033c-238,127 -60,505 180,396 242,-109 104,-549 -180,-396z"/>
   <path class="fil1" d="M25680 2432c420,57 343,-363 188,-417 -124,-43 -240,8 -275,109 -54,151 24,222 87,308z"/>
   <path class="fil1" d="M8479 2028c-203,130 -77,520 183,398 257,-120 69,-561 -183,-398z"/>
   <path class="fil1" d="M14506 2009c-421,-41 -336,376 -167,425 139,40 245,-43 272,-151 35,-145 -43,-190 -105,-274z"/>
   <path class="fil1" d="M19384 2028c-241,131 -77,495 179,393 246,-98 92,-541 -179,-393z"/>
   <path class="fil0" d="M28181 2009c61,122 369,67 500,67 151,0 422,39 521,-40l0 -53c-71,-56 -752,-64 -921,-40 -137,19 -74,39 -100,66z"/>
   <path class="fil3" d="M28202 2567c122,65 397,25 558,25 67,0 574,40 422,-103 -56,-53 -451,-23 -554,-23 -140,0 -496,-56 -426,101z"/>
   <path class="fil0" d="M26470 1983l0 476c0,223 173,213 173,0l0 -476 -12 -144c-125,-16 -161,-1 -161,144z"/>
   <path class="fil3" d="M12283 1956l0 530c0,99 12,86 66,128 95,-17 107,-47 107,-155 0,-227 10,-390 -17,-610 -106,-44 -156,-1 -156,107z"/>
   <path class="fil0" d="M23539 1983l0 476c0,211 172,225 172,0l0 -476c0,-220 -172,-202 -172,0z"/>
   <path class="fil3" d="M28310 2327l741 0c108,0 145,11 145,-93 -54,-40 -14,-33 -92,-33l-794 0c-178,0 -185,126 0,126z"/>
   <path class="fil1" d="M20289 2141l435 0c-42,-104 -79,-161 -222,-163 -139,-2 -181,56 -213,163z"/>
   <path class="fil1" d="M16321 2140l435 2c-35,-101 -105,-163 -224,-164 -143,0 -175,53 -211,162z"/>
   <path class="fil3" d="M12323 1694c137,51 178,-71 89,-175 -117,-17 -165,58 -89,175z"/>
   <path class="fil3" d="M26490 1685l134 22c22,-94 44,-110 -26,-186 -110,-25 -138,43 -108,164z"/>
   <path class="fil3" d="M23559 1679c73,43 41,45 119,12 124,-205 -187,-264 -119,-12z"/>
  </g>
 </g>
</svg>
