<?xml version="1.0" encoding="UTF-8"?>
<!DOCTYPE svg PUBLIC "-//W3C//DTD SVG 1.1//EN" "http://www.w3.org/Graphics/SVG/1.1/DTD/svg11.dtd">
<!-- Creator: CorelDRAW X8 -->
<svg xmlns="http://www.w3.org/2000/svg" xml:space="preserve" width="214.136mm" height="123.798mm" version="1.1" style="shape-rendering:geometricPrecision; text-rendering:geometricPrecision; image-rendering:optimizeQuality; fill-rule:evenodd; clip-rule:evenodd"
viewBox="0 0 21414 12380"
 xmlns:xlink="http://www.w3.org/1999/xlink">
 <defs>
  <style type="text/css">
   <![CDATA[
    .fil0 {fill:#003F57}
    .fil1 {fill:#C00B25}
    .fil2 {fill:white}
   ]]>
  </style>
 </defs>
 <g id="Camada_x0020_1">
  <metadata id="CorelCorpID_0Corel-Layer"/>
  <g id="_601178704">
   <polygon class="fil0" points="-2,12416 21412,12416 21412,36 -2,36 "/>
   <path class="fil1" d="M49 5239c1338,3 675,151 1154,-778 369,-717 1118,-1306 1930,-1413l0 5283c-860,-132 -1556,-694 -1915,-1386 -63,-120 -117,-241 -163,-378 -73,-219 -76,-405 -154,-429l-850 1c288,2853 3855,4159 5931,2191 303,-287 485,-501 725,-927 137,-243 415,-931 386,-1265l-2157 0 -25 897 969 0c-297,568 -983,1157 -1853,1297l0 -5286c985,139 1739,858 2072,1752 47,126 80,345 125,435l882 8c-204,-1713 -1658,-3130 -3529,-3130 -1873,1 -3318,1413 -3528,3128z"/>
   <path class="fil2" d="M18327 5220c306,252 243,28 858,-340 285,-171 724,-365 1131,-365 429,0 371,33 518,323 86,169 166,468 341,480 111,7 198,-74 214,-170 18,-105 -57,-226 -99,-310l-1226 -2532c-73,-145 -97,-166 -301,-140 -160,214 -936,1872 -1110,2238 -96,202 -347,591 -326,816z"/>
   <path class="fil2" d="M18722 8444c486,0 419,49 591,419 43,94 104,266 163,323 109,105 276,52 328,-34 36,-202 -103,-402 -184,-566l-986 -2033c-71,-153 -144,-439 -313,-463 -231,-34 -275,222 -353,391 -82,174 -168,339 -252,515 -128,268 -956,1916 -971,2041 -13,117 137,352 395,116 137,-125 280,-222 444,-324 275,-172 727,-385 1138,-385z"/>
   <path class="fil2" d="M10379 2188c-114,65 -506,970 -593,1151 -84,177 -853,1687 -837,1815 13,106 119,198 251,162 73,-19 202,-149 263,-195 325,-242 694,-476 1188,-577 188,-39 599,-79 705,63 100,134 195,443 286,596 137,231 487,86 331,-242 -96,-202 -186,-397 -290,-596 -198,-382 -385,-787 -579,-1184 -97,-201 -190,-392 -286,-599 -79,-171 -183,-540 -439,-394z"/>
   <path class="fil2" d="M13534 6487c736,0 1632,-193 1563,742 -52,703 -927,461 -1072,633 -126,151 2,282 143,339 801,327 687,994 1256,1048 187,18 336,-65 273,-267 -59,-191 -227,-75 -364,-210 -116,-115 -219,-380 -506,-656 104,-90 574,-200 666,-751 73,-440 -90,-848 -348,-1052 -351,-279 -697,-225 -1206,-225 -892,0 -804,-78 -804,633l0 2136c-2,207 26,524 300,381 167,-88 99,-436 99,-609l0 -2142z"/>
   <path class="fil2" d="M13562 2124c-1500,219 -1915,2123 -745,2959 581,415 1310,443 1896,22 409,-294 329,-277 329,-917 1,-163 53,-445 -80,-541 -436,-316 -312,737 -323,911 -11,158 -167,231 -309,305 -985,516 -2200,-537 -1672,-1643 232,-487 983,-958 1688,-578 131,71 288,229 423,38 229,-321 -632,-640 -1207,-556z"/>
   <path class="fil2" d="M15363 2423l0 1651c0,776 503,1302 1281,1302 855,0 1373,-468 1373,-1331l0 -1622c0,-192 -112,-335 -297,-235 -125,62 -103,173 -102,348l1 1453c-3,631 -278,989 -918,989 -1114,0 -933,-967 -933,-1958 0,-466 63,-644 -107,-854 -214,-21 -298,39 -298,257z"/>
   <path class="fil2" d="M10523 6380l0 2619c0,356 399,359 399,0l0 -1089 1402 0c156,0 293,-103 226,-282 -58,-157 -264,-124 -461,-124 -385,2 -769,0 -1153,0 -37,-217 -15,-759 -14,-1010l1594 0c402,0 394,-399 0,-399l-1708 0c-212,0 -285,67 -285,285z"/>
   <path class="fil2" d="M16147 6097c-170,207 -108,259 -108,767l0 1765c0,220 -72,736 275,612 197,-70 123,-526 123,-755l0 -1765c0,-349 99,-658 -290,-624z"/>
   <path class="fil0" d="M17485 8397c205,-61 383,-186 632,-260 285,-85 470,-101 786,-99l-614 -1281 -804 1640z"/>
   <path class="fil0" d="M9685 4469c205,-61 383,-186 631,-260 278,-83 473,-104 787,-100l-614 -1282 -804 1642z"/>
   <path class="fil0" d="M19061 4470c227,-85 371,-179 625,-258 318,-97 461,-81 794,-110l-609 -1264 -810 1632z"/>
   <path class="fil2" d="M11754 2136c-93,44 -44,12 -119,89l-326 329c-67,65 -174,133 -134,290 28,106 158,177 296,102 45,-23 367,-366 430,-426 278,-265 26,-465 -147,-384z"/>
   <path class="fil2" d="M15965 387c-249,55 -341,248 -307,530 29,247 202,407 479,339 433,-106 396,-993 -172,-869z"/>
   <path class="fil2" d="M17808 1263c68,-77 36,-269 36,-383 416,-45 168,435 463,358 -45,-148 -99,-298 -200,-402 51,-40 237,-147 116,-342 -81,-131 -300,-112 -481,-101 -9,152 -5,305 -5,457 0,294 -48,381 71,413z"/>
   <path class="fil0" d="M15949 496c-280,96 -238,813 194,655 254,-93 239,-804 -194,-655z"/>
   <path class="fil2" d="M10207 1227c84,-41 42,64 60,-118l1 -579c227,281 253,714 508,695 43,-80 35,-749 30,-776 -18,-89 11,-59 -58,-97 -67,47 -54,-37 -50,298 1,126 2,252 -3,378 -100,-102 -148,-258 -221,-389 -91,-166 -105,-320 -311,-261l-16 674c1,189 25,158 60,175z"/>
   <path class="fil2" d="M19609 537c0,706 -62,734 161,735 101,1 206,-2 309,-2 0,-131 37,-93 -349,-93l0 -327 306 0 0 -85 -306 0 8 -278c61,0 122,3 179,2 167,-1 131,-9 169,-38 -46,-83 -24,-49 -399,-49 -89,0 -78,48 -78,135z"/>
   <path class="fil2" d="M12115 508l9 729 361 12c139,0 84,2 106,-57 -38,-81 -19,-50 -363,-50l6 -314c51,1 121,6 167,3l141 -38c-39,-70 50,-50 -314,-50l0 -277c114,0 286,33 356,-43 -40,-56 36,-53 -272,-53 -176,1 -197,-25 -197,138z"/>
   <path class="fil2" d="M13909 1247l438 10c-24,-141 48,-91 -122,-106 -39,-3 -152,5 -201,5 -17,-138 -9,-280 -9,-420 1,-408 41,-339 -107,-349l1 860z"/>
   <path class="fil0" d="M17844 763l78 10c175,19 222,-74 194,-233 -75,-49 -149,-65 -272,-53l0 276z"/>
  </g>
 </g>
</svg>
