<?xml version="1.0" encoding="UTF-8"?>
<!DOCTYPE svg PUBLIC "-//W3C//DTD SVG 1.1//EN" "http://www.w3.org/Graphics/SVG/1.1/DTD/svg11.dtd">
<!-- Creator: CorelDRAW X8 -->
<svg xmlns="http://www.w3.org/2000/svg" xml:space="preserve" width="220mm" height="150mm" version="1.1" style="shape-rendering:geometricPrecision; text-rendering:geometricPrecision; image-rendering:optimizeQuality; fill-rule:evenodd; clip-rule:evenodd"
viewBox="0 0 22000 15000"
 xmlns:xlink="http://www.w3.org/1999/xlink">
 <defs>
  <style type="text/css">
   <![CDATA[
    .fil0 {fill:#003F57}
    .fil1 {fill:#C00B25}
    .fil2 {fill:white}
   ]]>
  </style>
 </defs>
 <g id="Camada_x0020_1">
  <metadata id="CorelCorpID_0Corel-Layer"/>
  <g id="_601221520">
   <polygon class="fil0" points="37,14976 22037,14976 22037,-24 37,-24 "/>
   <path class="fil1" d="M342 7799c1338,3 676,151 1154,-778 369,-717 1118,-1306 1930,-1413l0 5283c-860,-132 -1555,-694 -1915,-1386 -63,-120 -117,-241 -162,-378 -73,-219 -77,-405 -155,-429l-850 1c289,2853 3855,4159 5931,2191 303,-287 485,-500 725,-927 137,-243 416,-931 386,-1265l-2157 0 -25 897 969 0c-297,568 -982,1157 -1853,1298l0 -5287c985,139 1739,858 2072,1752 47,126 80,345 125,436l882 7c-204,-1713 -1658,-3130 -3529,-3130 -1873,1 -3318,1413 -3528,3128z"/>
   <path class="fil2" d="M18620 7780c306,252 243,28 858,-340 286,-171 724,-365 1131,-365 429,0 371,33 518,323 86,169 167,468 341,480 111,7 198,-74 214,-170 18,-104 -57,-226 -99,-310l-1226 -2532c-73,-145 -97,-166 -301,-139 -159,213 -936,1871 -1110,2237 -96,202 -347,591 -326,816z"/>
   <path class="fil2" d="M19015 11004c486,0 419,49 591,419 44,94 105,267 163,323 109,105 276,52 328,-34 37,-202 -103,-401 -184,-566l-985 -2032c-72,-154 -145,-440 -314,-464 -230,-33 -275,222 -353,391 -81,174 -168,339 -252,516 -127,267 -956,1915 -970,2041 -14,116 136,351 394,115 137,-125 280,-222 444,-324 275,-172 727,-385 1138,-385z"/>
   <path class="fil2" d="M10672 4748c-114,65 -506,970 -592,1151 -85,177 -853,1687 -838,1815 14,106 119,198 252,163 72,-20 201,-150 262,-196 325,-242 695,-476 1188,-577 188,-39 599,-78 706,64 99,133 194,442 285,595 138,231 487,86 331,-242 -96,-202 -186,-396 -289,-596 -199,-382 -386,-787 -580,-1184 -97,-201 -190,-392 -285,-599 -80,-171 -184,-540 -440,-394z"/>
   <path class="fil2" d="M13827 9047c736,0 1632,-193 1563,742 -52,703 -927,461 -1072,633 -126,151 3,282 143,339 801,327 687,994 1257,1048 186,18 335,-65 272,-267 -59,-191 -227,-75 -364,-210 -116,-115 -219,-380 -506,-656 104,-90 574,-200 666,-751 73,-440 -89,-848 -347,-1052 -352,-279 -698,-225 -1207,-225 -892,0 -804,-78 -804,634l0 2135c-2,207 26,524 300,381 167,-88 99,-435 99,-609l0 -2142z"/>
   <path class="fil2" d="M13855 4684c-1499,219 -1915,2124 -745,2959 581,415 1310,443 1896,22 409,-294 330,-277 330,-917 0,-163 52,-445 -80,-541 -437,-316 -312,737 -324,911 -11,158 -167,231 -309,305 -984,516 -2199,-537 -1672,-1643 232,-487 983,-957 1688,-578 131,71 288,229 423,39 229,-322 -632,-641 -1207,-557z"/>
   <path class="fil2" d="M15656 4983l0 1651c0,776 503,1302 1281,1302 855,0 1374,-468 1374,-1331l0 -1622c0,-192 -113,-335 -298,-235 -125,63 -103,174 -102,348l1 1453c-3,631 -278,989 -918,989 -1114,0 -932,-967 -932,-1957 0,-467 62,-645 -107,-854 -215,-22 -299,38 -299,256z"/>
   <path class="fil2" d="M10816 8940l0 2619c0,356 399,359 399,0l0 -1089 1402 0c156,0 293,-103 226,-282 -58,-157 -263,-124 -461,-124 -384,2 -769,1 -1153,1 -37,-218 -15,-760 -14,-1011l1594 0c402,0 394,-399 0,-399l-1708 0c-211,0 -285,67 -285,285z"/>
   <path class="fil2" d="M16441 8657c-171,207 -109,259 -109,767l0 1765c0,220 -72,736 275,613 197,-71 124,-526 124,-755l0 -1765c0,-350 98,-659 -290,-625z"/>
   <path class="fil0" d="M17778 10958c206,-62 384,-186 632,-261 285,-85 470,-101 787,-99l-615 -1281 -804 1641z"/>
   <path class="fil0" d="M9978 7029c205,-61 383,-186 631,-260 278,-83 473,-104 787,-100l-614 -1281 -804 1641z"/>
   <path class="fil0" d="M19355 7031c226,-86 370,-180 625,-259 317,-97 460,-80 793,-110l-609 -1264 -809 1633z"/>
   <path class="fil2" d="M12047 4696c-93,44 -43,12 -119,90l-326 328c-67,65 -174,133 -133,290 27,106 157,177 295,103 45,-24 367,-367 430,-427 279,-265 27,-465 -147,-384z"/>
   <path class="fil2" d="M16258 2948c-248,54 -340,247 -307,529 30,247 203,407 479,339 433,-106 397,-993 -172,-868z"/>
   <path class="fil2" d="M18101 3823c68,-77 36,-269 36,-383 416,-45 168,435 463,358 -45,-148 -99,-298 -200,-402 51,-40 237,-147 116,-342 -81,-131 -300,-112 -480,-101 -10,152 -6,305 -6,457 0,294 -48,381 71,413z"/>
   <path class="fil0" d="M16242 3056c-280,97 -238,814 194,655 254,-93 239,-804 -194,-655z"/>
   <path class="fil2" d="M10500 3787c84,-40 42,64 60,-117l1 -580c227,281 253,714 509,695 42,-80 34,-748 29,-776 -17,-89 11,-59 -58,-97 -66,47 -54,-37 -50,299 1,125 2,251 -3,377 -99,-102 -148,-258 -220,-389 -92,-166 -106,-320 -312,-261l-16 674c1,190 25,158 60,175z"/>
   <path class="fil2" d="M19902 3097c0,706 -62,734 161,736 102,0 206,-3 309,-3 0,-131 37,-93 -349,-93l0 -327 307 0 -1 -85 -306 0 8 -278c61,0 122,3 179,2 167,-1 132,-8 169,-38 -46,-83 -24,-49 -399,-49 -88,0 -78,49 -78,135z"/>
   <path class="fil2" d="M12408 3068l9 729 361 12c139,0 84,2 107,-57 -39,-81 -20,-50 -363,-50l5 -313c51,0 122,5 167,2l141 -38c-39,-70 50,-50 -313,-50l0 -277c113,0 285,33 355,-43 -40,-56 36,-53 -272,-52 -176,0 -197,-26 -197,137z"/>
   <path class="fil2" d="M14202 3807l439 10c-25,-141 48,-91 -123,-106 -39,-3 -152,5 -201,5 -17,-138 -9,-280 -9,-420 1,-408 41,-339 -107,-348l1 859z"/>
   <path class="fil0" d="M18137 3323l78 10c175,19 222,-74 194,-232 -74,-50 -149,-66 -272,-54l0 276z"/>
  </g>
 </g>
</svg>
